<svg xmlns="http://www.w3.org/2000/svg" width="240" height="174" viewBox="0 0 240 174">
  <g id="billing_and_transport_guides" data-name="billing and transport guides" transform="translate(0.242 -29.998)">
    <path id="Path_22544" data-name="Path 22544" d="M36.187,677.278c3.706,6.873,11.571,9.823,11.571,9.823s1.857-8.192-1.849-15.065-11.571-9.823-11.571-9.823S32.481,670.406,36.187,677.278Z" transform="translate(-23.867 -483.359)" fill="#232323"/>
    <path id="Path_22545" data-name="Path 22545" d="M14.962,698.523c6.691,4.025,9.267,12.021,9.267,12.021s-8.271,1.469-14.962-2.556S0,695.966,0,695.966,8.271,694.5,14.962,698.523Z" transform="translate(-0.094 -506.865)" fill="#37b26a"/>
    <rect id="Rectangle_1623" data-name="Rectangle 1623" width="0.596" height="5.516" transform="translate(189.671 47.383)" fill="#f2f2f2"/>
    <rect id="Rectangle_1635" data-name="Rectangle 1635" width="0.596" height="5.516" transform="translate(188.563 129.166)" fill="#f2f2f2"/>
    <path id="Path_22546" data-name="Path 22546" d="M195.878,627.2h-70.6V626.7h70.1V602.06H131.21l-3.117-6.493.458-.22,2.979,6.205h64.349Z" transform="translate(-88.014 -436.431)" fill="#fff" stroke="#fff" stroke-width="1"/>
    <circle id="Ellipse_556" data-name="Ellipse 556" cx="5.333" cy="5.333" r="5.333" transform="translate(41.323 192.55)" fill="#fff"/>
    <circle id="Ellipse_557" data-name="Ellipse 557" cx="5.333" cy="5.333" r="5.333" transform="translate(83.98 192.55)" fill="#fff"/>
    <circle id="Ellipse_558" data-name="Ellipse 558" cx="3.302" cy="3.302" r="3.302" transform="translate(141.5 92.921)" fill="#fcfcfc"/>
    <path id="Path_22547" data-name="Path 22547" d="M160.179,457.645H80.82L63.648,401.517H177.864l-.1.33ZM81.2,457.137h78.611l17.364-55.112H64.335Z" transform="translate(-44.764 -294.024)" fill="#fff" stroke="#fff" stroke-width="1"/>
    <path id="Path_22548" data-name="Path 22548" d="M167.047,462.794h-69.7L82.26,413.015H182.579l-.091.293Z" transform="translate(-57.826 -301.997)" fill="#d4d4d4"/>
    <path id="Path_22549" data-name="Path 22549" d="M450.257,354.658l-.439-.13,2.995-12.633h17.419v.508h-17.07Z" transform="translate(-330.489 -247.391)" fill="#fcfcfc" stroke="#fff" stroke-width="1"/>
    <rect id="Rectangle_1637" data-name="Rectangle 1637" width="102.959" height="0.508" transform="translate(24.433 126.402)" fill="#fff" stroke="#fff" stroke-width="1"/>
    <rect id="Rectangle_1638" data-name="Rectangle 1638" width="91.337" height="0.508" transform="translate(30.159 143.303)" fill="#fff" stroke="#fff" stroke-width="1"/>
    <rect id="Rectangle_1639" data-name="Rectangle 1639" width="0.508" height="55.62" transform="translate(68.039 107.757)" fill="#fff" stroke="#fff" stroke-width="1"/>
    <rect id="Rectangle_1640" data-name="Rectangle 1640" width="55.738" height="0.508" transform="translate(85.522 163.359) rotate(-86.249)" fill="#fff" stroke="#fff" stroke-width="1"/>
    <rect id="Rectangle_1641" data-name="Rectangle 1641" width="0.508" height="55.738" transform="translate(47.081 107.773) rotate(-3.729)" fill="#fff" stroke="#fff" stroke-width="1"/>
    <rect id="Rectangle_1642" data-name="Rectangle 1642" width="240" height="1" transform="translate(-0.242 202.998)" fill="#fcfcfc"/>
    <g id="Group_4828" data-name="Group 4828" transform="translate(148.165 29.998)">
      <path id="Path_22719" data-name="Path 22719" d="M666.915,49.916H632.791c-4.619-12.5-6.625-24.127,0-32.854A17.062,17.062,0,0,1,649.853,0h0a17.041,17.041,0,0,1,13.908,7.177,14.282,14.282,0,0,1,1.69,13.053C662.7,28.043,664.379,38.706,666.915,49.916Z" transform="translate(-617.141 0)" fill="#181818"/>
      <path id="Path_22720" data-name="Path 22720" d="M805.615,549.724h0a4.618,4.618,0,0,1-4.414-3.26l-1.406-4.569a6.8,6.8,0,0,1-.182-3.265l.958-5.061h6.716l2.787,10.335a4.618,4.618,0,0,1-4.459,5.82Z" transform="translate(-737.819 -376.652)" fill="#fcfcfc"/>
      <path id="Path_22721" data-name="Path 22721" d="M642.834,549.724h0a4.618,4.618,0,0,0,4.414-3.26l1.406-4.569a6.8,6.8,0,0,0,.182-3.265l-.958-5.061h-6.716L638.376,543.9a4.618,4.618,0,0,0,4.458,5.82Z" transform="translate(-623.97 -376.652)" fill="#fcfcfc"/>
      <path id="Path_22722" data-name="Path 22722" d="M688.032,321.063H680.59L648.28,259.712l-5.961,61.351h-6.564c-3.367-38.634-11.56-75.434,0-89.3L662.8,234.3Z" transform="translate(-618.019 -163.601)" fill="#232323"/>
      <circle id="Ellipse_586" data-name="Ellipse 586" cx="9.076" cy="9.076" r="9.076" transform="translate(22.729 8.531)" fill="#ffc44d"/>
      <path id="Path_22723" data-name="Path 22723" d="M684.795,108.1H664.647L661.2,92.125c6.691-1.977,8.286-6.574,6.9-12.706l10.891-.726c.617,4.939,1.747,9.545,8.712,10.346Z" transform="translate(-640.193 -55.55)" fill="#ffc44d"/>
      <path id="Path_22724" data-name="Path 22724" d="M676.081,150.284c-11.431,4.34-20.73,4.2-27.227-1.815,2.932-9.668,3.107-21.573,1.815-34.669l3.63-1.634,1.27,11.617,17.97-.908,3.993-12.706,3.993.908C681.832,126.831,680.889,141,676.081,150.284Z" transform="translate(-631.479 -77.77)" fill="#37b26a"/>
      <path id="Path_22725" data-name="Path 22725" d="M758.5,218.249l2.134,6.936a3.757,3.757,0,0,1-3.591,4.862h0A3.757,3.757,0,0,1,753.3,225.9l.837-8.014-3.449-27.227,2.541-11.98h6.353Z" transform="translate(-703.368 -126.131)" fill="#ffc44d"/>
      <path id="Path_22726" data-name="Path 22726" d="M594.067,215.538l-3.751,6.213a3.757,3.757,0,0,0,2.307,5.587h0a3.756,3.756,0,0,0,4.63-3.119l1.128-7.978,9.94-25.581,2-12.25-7.732-1.527Z" transform="translate(-589.775 -124.864)" fill="#ffc44d"/>
      <path id="Path_22727" data-name="Path 22727" d="M767.61,133.077l-11.98-.181V112.022l1.845.269a8.818,8.818,0,0,1,7.508,7.913Z" transform="translate(-706.854 -79.077)" fill="#37b26a"/>
      <path id="Path_22728" data-name="Path 22728" d="M622.314,140.483l11.98-.181V119.428l-1.845.269a8.818,8.818,0,0,0-7.508,7.913Z" transform="translate(-612.745 -84.305)" fill="#37b26a"/>
      <path id="Path_22729" data-name="Path 22729" d="M681.872,26.321c-3.855,2.181-11.264,3.179-16.7,1.633l-1.815-9.439h17.97Z" transform="translate(-641.718 -13.071)" fill="#181818"/>
    </g>
  </g>
</svg>
