<svg xmlns="http://www.w3.org/2000/svg" xmlns:xlink="http://www.w3.org/1999/xlink" width="61.881" height="67.385" viewBox="0 0 61.881 67.385">
  <defs>
    <clipPath id="clip-path">
      <rect id="Rectangle_1900" data-name="Rectangle 1900" width="3.868" height="6.004" transform="translate(217.178 9.608)" fill="none"/>
    </clipPath>
    <clipPath id="clip-path-2">
      <rect id="Rectangle_1901" data-name="Rectangle 1901" width="2.405" height="0.987" transform="translate(189.303 11.651)" fill="none"/>
    </clipPath>
    <clipPath id="clip-path-3">
      <rect id="Rectangle_1902" data-name="Rectangle 1902" width="2.405" height="0.987" transform="translate(189.303 18.771)" fill="none"/>
    </clipPath>
    <clipPath id="clip-path-4">
      <rect id="Rectangle_1903" data-name="Rectangle 1903" width="2.405" height="0.987" transform="translate(189.303 26.402)" fill="none"/>
    </clipPath>
    <clipPath id="clip-path-5">
      <rect id="Rectangle_1904" data-name="Rectangle 1904" width="1.203" height="0.663" transform="translate(190.53 34.035)" fill="none"/>
    </clipPath>
  </defs>
  <g id="images_tasks_todo" transform="translate(-1204 -506)">
    <path id="Path_24406" data-name="Path 24406" d="M233.29,61.641,221.017,23.629,207.45,16.177s-6.114,17.961-2.866,25.222c2.222,4.968,15.13,18.153,23.06,25.986h5.945Z" transform="translate(1015 506)" fill="#313131"/>
    <path id="Path_24420" data-name="Path 24420" d="M193.337,11.307l-4.013.382s-2.1,4.586,4.395,4.968Z" transform="translate(1015 506)" fill="#313131"/>
    <path id="Path_24421" data-name="Path 24421" d="M193.337,18.364l-4.013.384s-2.1,4.586,4.395,4.968Z" transform="translate(1015 506)" fill="#313131"/>
    <path id="Path_24422" data-name="Path 24422" d="M193.337,25.994l-4.013.382s-2.1,4.586,4.395,4.968Z" transform="translate(1015 506)" fill="#313131"/>
    <path id="Path_24423" data-name="Path 24423" d="M194.484,33.624l-4.013.382s-2.1,4.586,4.4,4.968Z" transform="translate(1015 506)" fill="#313131"/>
    <path id="Path_24424" data-name="Path 24424" d="M191.383,13.168h.3V4.827A4.827,4.827,0,0,1,196.51,0h17.676a4.827,4.827,0,0,1,4.827,4.827V50.586a4.827,4.827,0,0,1-4.827,4.827H196.515a4.827,4.827,0,0,1-4.828-4.826h0V19.1h-.3Z" transform="translate(1015 506)" fill="#131313"/>
    <path id="Path_24425" data-name="Path 24425" d="M196.32,1.256h2.307a1.713,1.713,0,0,0,1.586,2.36h10.123a1.713,1.713,0,0,0,1.586-2.36h2.155a3.605,3.605,0,0,1,3.6,3.605V50.552a3.605,3.605,0,0,1-3.6,3.605H196.32a3.6,3.6,0,0,1-3.605-3.605V4.861a3.6,3.6,0,0,1,3.605-3.605" transform="translate(1015 506)" fill="#fff"/>
    <path id="Path_24426" data-name="Path 24426" d="M217.681,11.621V10.065h-2.355V1.478a3.582,3.582,0,0,0-1.25-.223h-.307v8.809H205.6V3.613h-1.556v6.449h-6.848V1.256h-.875a3.549,3.549,0,0,0-.682.065v8.744h-2.924v1.556h2.924v3.6l-2.922,1.692v1.8l2.924-1.688v10.71h-2.924v1.556h2.924V44.77h-2.924v1.556h2.924v7.766a3.631,3.631,0,0,0,.682.065h.875V46.326h6.848v7.831H205.6V46.326h8.171v7.831h.307a3.6,3.6,0,0,0,1.25-.223V46.326h2.355V44.77h-2.355V38h2.334V36.444h-2.334V29.285h2.355V27.729h-2.355V18.235h2.355V16.679h-2.355V11.621Zm-15.807,0h0l-4.679,2.7v-2.7Zm-4.679,4.5h0l6.848-3.954V27.729H197.2Zm0,28.651V29.285h6.848V44.77Zm16.575,0H205.6V38h8.171Zm0-8.326H205.6V29.285h8.171Zm0-8.715H205.6v-9.5h8.171Zm0-11.05H205.6v-5.06h8.171Z" transform="translate(1015 506)" fill="#dedede"/>
    <g id="Group_14752" data-name="Group 14752" transform="translate(1015 506)" opacity="0.2" style="mix-blend-mode: normal;isolation: isolate">
      <g id="Group_14751" data-name="Group 14751">
        <g id="Group_14750" data-name="Group 14750" clip-path="url(#clip-path)">
          <path id="Path_24427" data-name="Path 24427" d="M219.446,15.612l1.6-.784-.054-.111-1.474.725-2.225-5.834-.115.044Z" fill="#040405"/>
        </g>
      </g>
    </g>
    <g id="Group_14755" data-name="Group 14755" transform="translate(1015 506)" opacity="0.2" style="mix-blend-mode: normal;isolation: isolate">
      <g id="Group_14754" data-name="Group 14754">
        <g id="Group_14753" data-name="Group 14753" clip-path="url(#clip-path-2)">
          <path id="Path_24428" data-name="Path 24428" d="M189.3,11.766l.043-.115,2.362.871-.042.116Z" fill="#040405"/>
        </g>
      </g>
    </g>
    <g id="Group_14758" data-name="Group 14758" transform="translate(1015 506)" opacity="0.2" style="mix-blend-mode: normal;isolation: isolate">
      <g id="Group_14757" data-name="Group 14757">
        <g id="Group_14756" data-name="Group 14756" clip-path="url(#clip-path-3)">
          <path id="Path_24429" data-name="Path 24429" d="M189.3,18.886l.043-.115,2.362.871-.042.116Z" fill="#040405"/>
        </g>
      </g>
    </g>
    <g id="Group_14761" data-name="Group 14761" transform="translate(1015 506)" opacity="0.2" style="mix-blend-mode: normal;isolation: isolate">
      <g id="Group_14760" data-name="Group 14760">
        <g id="Group_14759" data-name="Group 14759" clip-path="url(#clip-path-4)">
          <path id="Path_24430" data-name="Path 24430" d="M189.3,26.517l.043-.115,2.362.871-.042.116Z" fill="#040405"/>
        </g>
      </g>
    </g>
    <g id="Group_14764" data-name="Group 14764" transform="translate(1015 506)" opacity="0.2" style="mix-blend-mode: normal;isolation: isolate">
      <g id="Group_14763" data-name="Group 14763">
        <g id="Group_14762" data-name="Group 14762" clip-path="url(#clip-path-5)">
          <path id="Path_24431" data-name="Path 24431" d="M190.53,34.146l.053-.111,1.151.552-.054.111Z" fill="#040405"/>
        </g>
      </g>
    </g>
    <path id="Path_24432" data-name="Path 24432" d="M219.314,16.757c0,4.92-8.909,15.88-8.909,15.88s-8.909-10.96-8.909-15.88a8.909,8.909,0,0,1,17.817-.189q0,.094,0,.189Z" transform="translate(1015 506)" fill="#c47400"/>
    <path id="Path_24433" data-name="Path 24433" d="M210.4,34.264a2.4,2.4,0,1,1-2.4,2.4,2.4,2.4,0,0,1,2.4-2.4" transform="translate(1015 506)" fill="#c47400"/>
    <path id="Path_24434" data-name="Path 24434" d="M210.342,12.851a4,4,0,1,1-4,4,4,4,0,0,1,4-4" transform="translate(1015 506)" fill="#fff"/>
    <path id="Path_24436" data-name="Path 24436" d="M229.871,43.459l-.764-15.64-8.025-13.351-2.293-5.722s-5.35.572-.955,11.444l1.815,5.817a26.626,26.626,0,0,0-2.484,11.229v13.33c0,2.134,6.926,10.72,11.909,16.819h21.807Z" transform="translate(1015 506)" fill="#313131"/>
  </g>
</svg>
