<svg xmlns="http://www.w3.org/2000/svg" width="118.8" height="32" viewBox="0 0 118.8 32">
  <g id="logo-app_sellers" data-name="logo-app sellers" transform="translate(-30.497 -42)">
    <g id="icon_shopping-cart" transform="translate(30.497 42)">
      <rect id="shape" width="17.999" height="17.999" transform="translate(7.151 6.916)" fill="none"/>
      <path id="cart" d="M10.6,27.6a3.2,3.2,0,1,0,3.2,3.2A3.2,3.2,0,0,0,10.6,27.6ZM1,3.6A1.6,1.6,0,0,0,2.6,5.2H4.2L9.957,17.344,7.8,21.248A3.206,3.206,0,0,0,10.6,26H28.19a1.6,1.6,0,0,0,0-3.2H10.6l1.759-3.2H24.271a3.183,3.183,0,0,0,2.8-1.648L32.8,7.568A1.594,1.594,0,0,0,31.4,5.2H7.733L6.662,2.912A1.588,1.588,0,0,0,5.222,2H2.6A1.6,1.6,0,0,0,1,3.6Zm25.59,24a3.2,3.2,0,1,0,3.2,3.2A3.2,3.2,0,0,0,26.59,27.6Z" transform="translate(-1 -2)" fill="#37b26a"/>
    </g>
    <g id="ligth_logo" transform="translate(78.643 43.872)">
      <g id="Group_1" data-name="Group 1" transform="translate(0 0)">
        <path id="Path_1" data-name="Path 1" d="M148.831,837.768h-4.659V844.7h-4.729V826.472a8.969,8.969,0,0,1,2.715-6.626,9.1,9.1,0,0,1,6.672-2.7v4.693a4.509,4.509,0,0,0-3.293,1.354,4.437,4.437,0,0,0-1.365,3.269v7.3h4.659Z" transform="translate(-139.444 -817.149)" fill="#fcfcfc"/>
        <path id="Path_2" data-name="Path 2" d="M174.732,839.819a8.992,8.992,0,0,1-2.713,6.635,9.555,9.555,0,0,1-13.327-.017,8.98,8.98,0,0,1-2.733-6.617v-9.3h4.729v9.3a4.631,4.631,0,0,0,4.64,4.632,4.528,4.528,0,0,0,3.305-1.359,4.443,4.443,0,0,0,1.37-3.273v-9.3h4.727Z" transform="translate(-144.191 -821.045)" fill="#fcfcfc"/>
        <path id="Path_3" data-name="Path 3" d="M204.437,839.787a9.2,9.2,0,0,1-.1,1.389h-13.7a4.459,4.459,0,0,0,1.682,2.352,4.606,4.606,0,0,0,2.767.888,4.455,4.455,0,0,0,3.537-1.637l2.872,3.8A9.332,9.332,0,0,1,185.7,839.8a8.9,8.9,0,0,1,2.732-6.588,9.548,9.548,0,0,1,13.292,0A8.908,8.908,0,0,1,204.437,839.787Zm-5.287-2.127a4.632,4.632,0,0,0-8.16,0Z" transform="translate(-152.74 -821.045)" fill="#fcfcfc"/>
        <path id="Path_4" data-name="Path 4" d="M220.165,844.7h-4.729v-27.55h4.729Z" transform="translate(-161.287 -817.149)" fill="#fcfcfc"/>
      </g>
      <path id="Path_22662" data-name="Path 22662" d="M2.813,0A2.813,2.813,0,1,1,0,2.813,2.813,2.813,0,0,1,2.813,0Z" transform="translate(65.028 22.63)" fill="#37b26a"/>
    </g>
  </g>
</svg>
