<svg xmlns="http://www.w3.org/2000/svg" width="120" height="107.997" viewBox="0 0 120 107.997">
  <g id="receipt_image" transform="translate(0 3.245)">
    <path id="Path_23996" data-name="Path 23996" d="M.673,56.634a.922.922,0,0,0-.638,1.135l15.392,54.963a.922.922,0,0,0,1.135.638L73.3,97.483a.922.922,0,0,0,.638-1.135L58.549,41.386a.922.922,0,0,0-1.135-.638Z" transform="translate(0 -35.142)" fill="#dedede"/>
    <path id="Path_23997" data-name="Path 23997" d="M27.751,121.252l54.071-15.139L67.178,53.821,13.107,68.96Z" transform="translate(-10.477 -45.62)" fill="#fff"/>
    <path id="Path_23998" data-name="Path 23998" d="M47.119,136.52c-.361.1-.509.7-.331,1.336s.616,1.07.977.969l24.661-6.9c.361-.1.509-.7.331-1.336s-.616-1.07-.977-.969Z" transform="translate(-37.34 -106.198)" fill="#e8e8e8"/>
    <path id="Path_23999" data-name="Path 23999" d="M57.018,171.872c-.361.1-.509.7-.331,1.336s.616,1.07.977.969l24.661-6.9c.361-.1.51-.7.332-1.336s-.616-1.07-.977-.969Z" transform="translate(-45.253 -134.458)" fill="#e8e8e8"/>
    <path id="Path_24000" data-name="Path 24000" d="M66.8,206.816c-.361.1-.51.7-.332,1.336s.616,1.07.977.969l24.661-6.9c.361-.1.509-.7.332-1.336s-.616-1.07-.977-.969Z" transform="translate(-53.074 -162.393)" fill="#e8e8e8"/>
    <path id="Path_24001" data-name="Path 24001" d="M76.7,242.168c-.361.1-.51.7-.332,1.336s.616,1.07.977.969l24.661-6.9c.361-.1.509-.7.331-1.336s-.616-1.07-.977-.969Z" transform="translate(-60.987 -190.652)" fill="#e8e8e8"/>
    <path id="Path_24002" data-name="Path 24002" d="M230.543,107.293a1.2,1.2,0,1,0,.641,2.306h0l4.61-1.291a1.2,1.2,0,1,0-.645-2.305h0Z" transform="translate(-183.587 -87.298)" fill="#e8e8e8"/>
    <path id="Path_24003" data-name="Path 24003" d="M240.249,141.96a1.2,1.2,0,0,0,.641,2.306h0l4.61-1.291a1.2,1.2,0,1,0-.645-2.3Z" transform="translate(-191.347 -115.01)" fill="#e8e8e8"/>
    <path id="Path_24004" data-name="Path 24004" d="M249.962,176.626a1.2,1.2,0,1,0,.644,2.305h0l4.61-1.291a1.2,1.2,0,0,0-.645-2.305Z" transform="translate(-199.112 -142.722)" fill="#e8e8e8"/>
    <path id="Path_24005" data-name="Path 24005" d="M259.681,211.3a1.2,1.2,0,0,0,.645,2.305l4.61-1.291a1.2,1.2,0,0,0-.645-2.3Z" transform="translate(-206.884 -170.437)" fill="#e8e8e8"/>
    <path id="Path_24006" data-name="Path 24006" d="M267.986,269.923a1.525,1.525,0,1,0,.82,2.938h0l5.874-1.645a1.525,1.525,0,1,0-.823-2.937h0Z" transform="translate(-213.327 -217.01)" fill="#37b26a"/>
    <rect id="Rectangle_1885" data-name="Rectangle 1885" width="45.142" height="0.403" transform="matrix(0.963, -0.27, 0.27, 0.963, 17.234, 59.152)" fill="#e8e8e8"/>
    <path id="Path_24007" data-name="Path 24007" d="M486.748,452.493l-3.486.843-4.91-13.045,5.146-1.244Z" transform="translate(-382.379 -353.567)" fill="#ffc44d"/>
    <path id="Path_24008" data-name="Path 24008" d="M472.254,506.728l-.023-.1a4.46,4.46,0,0,1,3.284-5.377l6.821-1.649,1.071,4.428Z" transform="translate(-377.386 -401.976)" fill="#181818"/>
    <path id="Path_24009" data-name="Path 24009" d="M422.187,462.786H418.6l-1.706-13.833h5.294Z" transform="translate(-333.252 -361.486)" fill="#ffc44d"/>
    <path id="Path_24010" data-name="Path 24010" d="M401.893,516.857H390.42v-.1a4.455,4.455,0,0,1,4.456-4.455h7.018Z" transform="translate(-312.089 -412.126)" fill="#181818"/>
    <path id="Path_24011" data-name="Path 24011" d="M403,314.99l-3.483-41.5,14.417-2.657.057-.01,4.22,2.712-1.469,15.273,6.762,23.812-5.839,1.536L410.9,292.072l-1.55-6.716-.794,8.726.59,21.521Z" transform="translate(-319.365 -219.09)" fill="#484848"/>
    <path id="Path_24012" data-name="Path 24012" d="M397.144,131.571l-.038-.048,4.982-37.505.007-.049.035-.035c.073-.073,1.819-1.8,3.614-1.8.26,0,.506-.007.743-.012a4.258,4.258,0,0,1,3.749,1.226c1.314,1.314,5.6,6.111,5.6,12.682,0,6.36.579,26.125.585,26.324l.008.279-.234-.152c-.058-.037-5.825-3.709-10.661-.3a6.958,6.958,0,0,1-4.03,1.441A5.985,5.985,0,0,1,397.144,131.571Z" transform="translate(-317.434 -76.23)" fill="#37b26a"/>
    <ellipse id="Ellipse_864" data-name="Ellipse 864" cx="7.186" cy="7.185" rx="7.186" ry="7.185" transform="matrix(0.877, -0.48, 0.48, 0.877, 77.795, 3.649)" fill="#ffc44d"/>
    <path id="Path_24013" data-name="Path 24013" d="M362.465,272.677a2.942,2.942,0,0,0,.171-4.508l4.081-9.624-5.343.983-3.056,8.989a2.958,2.958,0,0,0,4.148,4.16Z" transform="translate(-285.918 -209.275)" fill="#ffc44d"/>
    <path id="Path_24014" data-name="Path 24014" d="M361.879,141.049l1.314-2.774a.539.539,0,0,1-.194-.2c-1.228-2.127,6.188-19.794,6.682-20.966-.075-.637-.854-7.391-.285-9.668.67-2.68,2.046-3.929,4.6-4.176,2.817-.264,3.577,3.561,3.585,3.6l0,9.834-3.233,11.32-7.374,15.04Z" transform="translate(-289.274 -85.134)" fill="#37b26a"/>
    <path id="Path_24015" data-name="Path 24015" d="M405.683,11.81c-.862.112-1.511-.769-1.813-1.584s-.531-1.763-1.28-2.2c-1.023-.6-2.332.122-3.5-.077a3.068,3.068,0,0,1-2.248-2.963,8.966,8.966,0,0,1,.988-3.86l.183,1.534A3.041,3.041,0,0,1,399.339,0L399.1,2.25A2.389,2.389,0,0,1,401.852.274l-.037,1.341a22.159,22.159,0,0,1,4.6-.225,7.434,7.434,0,0,1,4.232,1.631A7.4,7.4,0,0,1,412.8,9.3a19.765,19.765,0,0,1-2.143,6.516c-.248.523-.59,1.112-1.165,1.179a1.173,1.173,0,0,1-1.149-.866,3.138,3.138,0,0,1,.014-1.542,6.557,6.557,0,0,0,.192-2.333,1.9,1.9,0,0,0-1.472-1.632c-.779-.095-1.577.8-1.2,1.486Z" transform="translate(-317.216 -2.596)" fill="#181818"/>
    <path id="Path_24016" data-name="Path 24016" d="M391.7,533.408h-51.71v-.422h51.787Z" transform="translate(-271.778 -428.661)" fill="#181818"/>
  </g>
</svg>
