<svg xmlns="http://www.w3.org/2000/svg" width="173.95" height="85" viewBox="0 0 173.95 85">
  <g id="white-logo" transform="translate(-80 -140.374)">
    <g id="logo" transform="translate(-12.01 -645.47)">
      <g id="Group_1" data-name="Group 1" transform="translate(128.588 809.984)">
        <path id="Path_1" data-name="Path 1" d="M149.6,839.589h-5.042v7.543h-5.117V827.3A10.027,10.027,0,0,1,149.6,817.149v5.107a5.038,5.038,0,0,0-5.042,5.031v7.943H149.6Z" transform="translate(-139.444 -817.149)" fill="#fff"/>
        <path id="Path_2" data-name="Path 2" d="M176.276,840.64a10.158,10.158,0,1,1-20.316,0V830.519h5.118V840.64a4.872,4.872,0,0,0,1.465,3.563,4.817,4.817,0,0,0,3.556,1.478,5.055,5.055,0,0,0,5.06-5.041V830.519h5.116Z" transform="translate(-143.224 -820.209)" fill="#fff"/>
        <path id="Path_3" data-name="Path 3" d="M205.977,840.606a10.063,10.063,0,0,1-.112,1.512H191.044a4.855,4.855,0,0,0,1.82,2.56,4.965,4.965,0,0,0,2.994.965,4.81,4.81,0,0,0,3.828-1.781l3.108,4.133a10.179,10.179,0,1,1,3.183-7.388Zm-5.722-2.315a5,5,0,0,0-8.831,0Z" transform="translate(-150.03 -820.209)" fill="#fff"/>
        <path id="Path_4" data-name="Path 4" d="M220.554,847.132h-5.118V817.149h5.118Z" transform="translate(-156.836 -817.149)" fill="#fff"/>
      </g>
      <path id="Path_5" data-name="Path 5" d="M243.2,839.821a8.054,8.054,0,0,1-1.392,4.4q-2.848,3.985-9.2,3.748a14.517,14.517,0,0,1-6.238-1.868l.5-5.729q.533.5,1.4,1.171a6.455,6.455,0,0,0,3.605,1.37q5.426.4,5.71-3.469l.006-.076a3.353,3.353,0,0,0-1.758-3.062,20.856,20.856,0,0,0-3.846-1.731c-.742-.283-1.545-.618-2.407-1.016a8.276,8.276,0,0,1-4.113-7.923l.018-.228a7.874,7.874,0,0,1,1.563-4.172,8.86,8.86,0,0,1,3.55-2.869,9.945,9.945,0,0,1,4.55-.864,13.81,13.81,0,0,1,5.986,1.654l-.4,5.4a8.2,8.2,0,0,0-5.375-2.192,4.432,4.432,0,0,0-2.364.477,3.178,3.178,0,0,0-1.843,2.764q-.189,2.575,3.525,3.992.667.276,2.634,1.032a9.113,9.113,0,0,1,4.695,3.43A9.985,9.985,0,0,1,243.2,839.821Z" transform="translate(-30.536 -7.242)" fill="#01a64f"/>
      <path id="Path_6" data-name="Path 6" d="M262.721,847.591a9.886,9.886,0,0,1-7.231-2.944,9.766,9.766,0,0,1-2.97-7.209V817.477h5.14V827.83h5.061v4.38H257.66v5.217a4.821,4.821,0,0,0,1.483,3.558,4.909,4.909,0,0,0,3.578,1.465Z" transform="translate(-36.735 -7.24)" fill="#fff"/>
      <path id="Path_7" data-name="Path 7" d="M293.634,850.663h-5.463l-1.08-2.972a10.164,10.164,0,0,1-17.936-6.582,10.1,10.1,0,0,1,6.7-9.558,10.3,10.3,0,0,1,3.5-.648,9.874,9.874,0,0,1,5.844,1.848,10.045,10.045,0,0,1,3.715,4.894Zm-9.251-9.575a4.766,4.766,0,0,0-2.171-4.164,4.907,4.907,0,0,0-2.893-.881,4.673,4.673,0,0,0-4.11,2.141,5.04,5.04,0,0,0-.912,2.9,4.735,4.735,0,0,0,2.168,4.128,5.013,5.013,0,0,0,6.435-.555A4.839,4.839,0,0,0,284.384,841.088Z" transform="translate(-40.542 -10.312)" fill="#fff"/>
      <path id="Path_8" data-name="Path 8" d="M314.557,836.033a4.912,4.912,0,0,0-3.577,1.464,4.805,4.805,0,0,0-1.484,3.555v9.611h-5.14v-9.611a9.749,9.749,0,0,1,2.97-7.2,9.889,9.889,0,0,1,7.232-2.947Z" transform="translate(-48.598 -10.312)" fill="#fff"/>
      <path id="Path_9" data-name="Path 9" d="M175.5,842.688l-28.944.048a2.337,2.337,0,0,0-1.922,1.018l-11.661,16.913a1.577,1.577,0,0,1-2.8-.408l-6.334-19.542a2.417,2.417,0,0,0-1.556-1.518L102.6,833.322a1.573,1.573,0,0,1-.474-2.783l16.637-12.058a2.376,2.376,0,0,0,.971-1.977l-.521-20.509a1.575,1.575,0,0,1,2.5-1.313l16.616,12.088a2.375,2.375,0,0,0,2.169.315l19.4-6.409a1.571,1.571,0,0,1,1.6.371,1.109,1.109,0,0,1,.4,1.293l-3.728,13.7h4.917L168.74,796.3a2.446,2.446,0,0,0-.573-2.468,2.383,2.383,0,0,0-2.388-.564l-24.917,8.775a1.566,1.566,0,0,1-1.451-.193l-21.367-15.57a2.354,2.354,0,0,0-1.379-.438,2.3,2.3,0,0,0-2.308,2.369l.649,26.4a1.573,1.573,0,0,1-.651,1.315l-21.373,15.5a2.323,2.323,0,0,0,.687,4.119l25.321,7.541a1.574,1.574,0,0,1,1.051,1.026l8.139,25.121a2.332,2.332,0,0,0,.585.961,2.3,2.3,0,0,0,1.292.632,2.363,2.363,0,0,0,2.258-.99L147.3,848.09a1.572,1.572,0,0,1,1.3-.68h0l26.41.013a2.316,2.316,0,0,0,2.086-1.3,2.283,2.283,0,0,0-.124-2.278Z" transform="translate(0 0)" fill="#01a64f"/>
    </g>
  </g>
</svg>
