<svg xmlns="http://www.w3.org/2000/svg" width="162.723" height="76.5" viewBox="0 0 162.723 76.5"><defs><style>.a{fill:#232931;}.b{fill:#fcfcfc;}</style></defs><g transform="translate(-16 -40)"><g transform="translate(16 40)"><path class="a" d="M220.9,419.273v.477q0,4.627,0,9.255a4.093,4.093,0,0,1-.041.765,1.73,1.73,0,0,1-1.551,1.472,4.873,4.873,0,0,1-.723.055q-17.664,0-35.328,0a5.315,5.315,0,0,1-.8-.066,1.754,1.754,0,0,1-1.5-1.564,6.889,6.889,0,0,1-.044-.766q0-13.6,0-27.2c0-.215.014-.431.034-.645a1.811,1.811,0,0,1,1.778-1.75c.121-.01.242-.009.364-.009q17.825,0,35.651.008a2.878,2.878,0,0,1,1.1.2,1.863,1.863,0,0,1,1.073,1.949c-.008,2.586,0,5.173,0,7.76v2.1h-.558c-4.392,0-8.785.008-13.177,0a4.044,4.044,0,0,0-3.239,1.359,3.765,3.765,0,0,0-.71,4.107,3.652,3.652,0,0,0,3.505,2.485c4.554.041,9.108.017,13.662.019Z" transform="translate(-180.9 -399.299)"/><path class="a" d="M479.72,572.353a2.009,2.009,0,1,1-2,2.017A2.027,2.027,0,0,1,479.72,572.353Z" transform="translate(-453.723 -558.365)"/></g><path class="b" d="M9.893-24.439V-36.159H25.775v-5.52H9.893v-8.642H26.68v-5.747H3.92v31.628Zm26.018-22.4v22.4H30.39v-22.4Zm-6.018-6.2c0,4.3,6.516,4.3,6.516,0S29.892-57.335,29.892-53.036Zm32.941,28.6V-36.159c0-7.013-4.208-10.95-9.457-10.95-2.805,0-5.068,1.131-7.33,3.348l-.362-3.032H40.752v22.353h5.475v-11.4c0-3.394,2.308-6.244,5.7-6.244,3.529,0,5.385,2.579,5.385,5.973v11.674ZM85.1-43.67c-1.267-2.217-4.118-3.62-7.1-3.62-6.516-.045-11.629,3.982-11.629,11.674,0,7.828,4.887,11.9,11.493,11.855,2.489-.045,5.973-1.312,7.24-3.937l.271,3.258h5.2V-46.747H85.276Zm-6.606,1.312c8.688,0,8.688,13.529,0,13.529a6.39,6.39,0,0,1-6.606-6.787A6.352,6.352,0,0,1,78.489-42.358Zm38.687,17.918V-36.159c0-7.013-4.208-10.95-9.457-10.95-2.805,0-5.068,1.131-7.33,3.348l-.362-3.032H95.095v22.353h5.475v-11.4c0-3.394,2.308-6.244,5.7-6.244,3.529,0,5.385,2.579,5.385,5.973v11.674Zm20.181-6.47a6.707,6.707,0,0,1-4.887,1.855c-3.439,0-6.335-2.262-6.335-6.516a6.275,6.275,0,0,1,6.425-6.606,6.776,6.776,0,0,1,4.48,1.765l3.484-3.665a10.594,10.594,0,0,0-8.054-3.3c-6.47,0-11.855,3.891-11.855,11.81S126-23.761,132.47-23.761a11.478,11.478,0,0,0,8.6-3.529Zm29.185-2.715c.86-9.185-3.8-13.8-11.267-13.8-7.24,0-11.855,4.887-11.855,11.674,0,7.149,4.57,11.9,12.262,11.9,3.394,0,7.24-1.176,9.593-3.62l-3.529-3.484c-1.267,1.312-3.937,2.081-5.973,2.081-3.891,0-6.289-1.991-6.651-4.751Zm-17.33-4.57c.814-2.9,3.258-4.344,6.244-4.344,3.167,0,5.43,1.448,5.792,4.344Z" transform="translate(12.08 140.26)"/></g></svg>