<svg xmlns="http://www.w3.org/2000/svg" width="172" height="26" viewBox="0 0 172 26"><defs><style>.a{fill:#23343e;}.b{fill:#fff;}</style></defs><g transform="translate(-16 -343)"><g transform="translate(16 343)"><g transform="translate(0 0)"><path class="a" d="M212.9,415.528v.388q0,3.76,0,7.52a3.375,3.375,0,0,1-.033.621,1.393,1.393,0,0,1-1.241,1.2,3.829,3.829,0,0,1-.579.045q-14.131,0-28.262,0a4.188,4.188,0,0,1-.643-.053,1.416,1.416,0,0,1-1.2-1.271,5.689,5.689,0,0,1-.035-.622q0-11.049,0-22.1c0-.175.011-.35.027-.524a1.46,1.46,0,0,1,1.422-1.422c.1-.008.194-.007.291-.007q14.26,0,28.521.006a2.272,2.272,0,0,1,.88.159,1.519,1.519,0,0,1,.858,1.583c-.007,2.1,0,4.2,0,6.3v1.7h-.447c-3.514,0-7.028.006-10.542,0a3.212,3.212,0,0,0-2.591,1.1,3.1,3.1,0,0,0-.568,3.337,2.925,2.925,0,0,0,2.8,2.019c3.643.033,7.286.014,10.93.015Z" transform="translate(-180.9 -399.299)"/><path class="a" d="M479.32,572.353a1.632,1.632,0,1,1-1.6,1.638A1.634,1.634,0,0,1,479.32,572.353Z" transform="translate(-458.522 -560.988)"/></g><path class="b" d="M8.765-30.8v-9.375H21.648v-4.416H8.765v-6.914H22.383v-4.6H3.92v25.3ZM29.87-48.722V-30.8H25.392V-48.722Zm-4.882-4.959c0,3.439,5.286,3.439,5.286,0S24.989-57.12,24.989-53.681ZM51.71-30.8v-9.375c0-5.611-3.414-8.76-7.671-8.76a8.212,8.212,0,0,0-5.946,2.679L37.8-48.685h-4V-30.8h4.441v-9.122a4.721,4.721,0,0,1,4.625-5c2.863,0,4.368,2.063,4.368,4.778V-30.8ZM69.769-46.188a6.67,6.67,0,0,0-5.763-2.9c-5.286-.036-9.433,3.185-9.433,9.339,0,6.262,3.964,9.52,9.323,9.484,2.019-.036,4.845-1.05,5.873-3.149l.22,2.606H74.21V-48.649H69.915Zm-5.359,1.05c7.047,0,7.047,10.823,0,10.823a5.147,5.147,0,0,1-5.359-5.43A5.117,5.117,0,0,1,64.41-45.138ZM95.792-30.8v-9.375c0-5.611-3.414-8.76-7.671-8.76a8.211,8.211,0,0,0-5.946,2.679l-.294-2.425h-4V-30.8h4.441v-9.122a4.721,4.721,0,0,1,4.625-5c2.863,0,4.368,2.063,4.368,4.778V-30.8Zm16.37-5.176A5.484,5.484,0,0,1,108.2-34.5a4.9,4.9,0,0,1-5.139-5.213,5.054,5.054,0,0,1,5.212-5.285,5.539,5.539,0,0,1,3.634,1.412l2.826-2.932a8.655,8.655,0,0,0-6.534-2.643c-5.249,0-9.617,3.113-9.617,9.448s4.368,9.448,9.617,9.448a9.378,9.378,0,0,0,6.974-2.823Zm23.675-2.172c.7-7.348-3.083-11.041-9.14-11.041-5.873,0-9.617,3.909-9.617,9.339,0,5.719,3.707,9.52,9.947,9.52a11.2,11.2,0,0,0,7.781-2.9l-2.863-2.787a7.533,7.533,0,0,1-4.845,1.665c-3.157,0-5.1-1.593-5.4-3.8Zm-14.058-3.656c.661-2.317,2.643-3.475,5.065-3.475,2.569,0,4.4,1.158,4.7,3.475Z" transform="translate(36.08 56.26)"/></g></g></svg>