<svg xmlns="http://www.w3.org/2000/svg" width="100" height="100" viewBox="0 0 100 100">
  <g id="icon_template" transform="translate(-2537.46 1103.704)">
    <rect id="shape" width="100" height="100" transform="translate(2537.46 -1103.704)" fill="none"/>
    <path id="templates" d="M1819.246-2808.709q-5.293-.006-10.582,0a3.182,3.182,0,0,1-2.383-.839,3.1,3.1,0,0,1-.821-2.335c.028-4.083.028-8.387,0-13.545a2.764,2.764,0,0,1,2.985-3.007l.631-.01c1.107-.014,2.224-.032,3.335,0h.035c-.032-5.634-.032-11.363,0-17.514-.881.028-1.756.021-2.6.014l-.109,0c-.451,0-.9-.007-1.346,0a2.915,2.915,0,0,1-2.14-.768,2.885,2.885,0,0,1-.772-2.134c.01-4.876.014-9.272-.01-13.715a2.758,2.758,0,0,1,2.979-3.015l.821-.01c.98-.013,1.992-.028,3.011.021a1.5,1.5,0,0,0,.18,0c0-.038,0-.084,0-.138-.056-6.356-.035-12.6-.007-17.338v-.025c-1.008.038-2.006.025-2.975.014-.321,0-.645,0-.97-.008a2.759,2.759,0,0,1-3.038-2.958c.021-4.464.014-9,.01-13.4l0-.483a2.755,2.755,0,0,1,.747-2.038,2.788,2.788,0,0,1,2.058-.747c4.445.007,9.169.01,13.885-.008h.028a2.8,2.8,0,0,1,2.256.949,3.205,3.205,0,0,1,.652,2.115c0,.4-.007.8-.014,1.206a23.979,23.979,0,0,0,.046,2.538,2.9,2.9,0,0,0,.356.268l.123-.01a4.3,4.3,0,0,1,.49-.032h52.6c.268,0,.645,0,.927-.01.01-.272.01-.631.014-.885,0-1.192.011-2.26.064-3.342a2.739,2.739,0,0,1,2.971-2.8h.014c4.142.017,8.5.021,13.715.007a3.006,3.006,0,0,1,2.21.8,3.007,3.007,0,0,1,.807,2.2q.006,6.78,0,13.563a2.9,2.9,0,0,1-3.162,3.071h-.063c-.413,0-.8,0-1.185.007-.888.01-1.808.018-2.731-.017a.5.5,0,0,0-.07,0c0,.039,0,.085,0,.138.025,5.447.025,11.116,0,17.332v.025h.011c.7-.025,1.4-.017,2.079-.01h.042c.568,0,1.121.01,1.657,0a3.367,3.367,0,0,1,2.573.861,3.268,3.268,0,0,1,.882,2.478c-.035,4.777-.025,9.488-.011,13.06a3.212,3.212,0,0,1-.884,2.464,3.154,3.154,0,0,1-2.454.794c-.648-.025-1.329-.017-1.984-.014-.631.008-1.269.01-1.911-.007v.053c.028,6.275.028,11.944,0,17.331,0,.05,0,.089,0,.123a.819.819,0,0,0,.134,0c.73-.01,1.484,0,2.15,0,.592.008,1.184.014,1.78.008a3.124,3.124,0,0,1,2.309.818,3.04,3.04,0,0,1,.842,2.267q.01,5.506,0,11.011l0,2.552a2.894,2.894,0,0,1-3.148,3.082l-13.395.01a2.989,2.989,0,0,1-3.218-3.208c0-.352-.014-.7-.025-1.054a17.648,17.648,0,0,1,.035-2.513,2.833,2.833,0,0,0,.014-.424,3.728,3.728,0,0,0-.677-.046c-6.7.043-13.462.035-20.011.032q-6.684-.005-13.377,0c-6.123.007-13.064.013-19.722-.035a3.251,3.251,0,0,0-.842.07,2.083,2.083,0,0,0,.01.558,16.323,16.323,0,0,1,.049,2.337c-.011.36-.021.713-.018,1.064a3.179,3.179,0,0,1-.839,2.36,3.2,3.2,0,0,1-2.365.864Zm1.953-19.748.726,0a3.223,3.223,0,0,1,2.383.893,3.135,3.135,0,0,1,.8,2.354c-.014.459-.007.935,0,1.4.011.74.025,1.491-.035,2.26-.007.088-.007.159-.007.211a2.811,2.811,0,0,0,.4.017c5.915-.042,12.094-.034,17.547-.032q2.834,0,5.661,0l13.7,0c4.709,0,10.9,0,17.015.032.116,0,.2-.01.278-.013,0-.043,0-.092-.007-.148a28.758,28.758,0,0,1-.028-2.958v-.1c.007-.218.01-.44.014-.659a3.1,3.1,0,0,1,3.363-3.265c.55.008,1.1,0,1.647,0,.691,0,1.406-.008,2.132.01h.035c-.039-5.958-.039-11.853,0-17.51-.695.021-1.385.013-2.055.01h-.05c-.624-.008-1.269-.01-1.89,0a3.043,3.043,0,0,1-2.3-.776,2.87,2.87,0,0,1-.828-2.139c-.028-4.072-.049-8.9-.018-13.74a2.926,2.926,0,0,1,.85-2.168,3.242,3.242,0,0,1,2.425-.829c.62.014,1.258.01,1.878.008h.032c.638-.008,1.3-.01,1.956,0-.024-5.8-.024-11.68,0-17.484-.645.018-1.293.011-1.868.008-.659-.008-1.329-.01-1.974.01a2.987,2.987,0,0,1-3.32-3.1c-.031-.684-.028-1.364-.025-2.016,0-.271,0-.547,0-.819,0-.247,0-.473,0-.676,0-.148,0-.342,0-.522-.152,0-.318,0-.434,0h-.148c-.165,0-.342,0-.529,0q-8.608,0-17.23,0h-10.861c-1.5,0-2.985,0-4.469,0h-1.833c-6.13.008-12.468.01-18.7-.031a3.02,3.02,0,0,0-.367.018c0,.059,0,.145.007.253.067.945.053,1.879.035,2.785-.007.356-.014.709-.014,1.065a2.809,2.809,0,0,1-3.01,3.021c-.325,0-.652,0-.977,0l-.081,0c-1.008.008-2.038.018-3.06-.017v.017c.035,5.9.035,11.776,0,17.477H1818c.938-.029,1.882-.025,2.8-.018.441,0,.881,0,1.322,0a2.75,2.75,0,0,1,2.968,2.887c.021,4.524.021,9.146,0,13.736a3,3,0,0,1-.857,2.253,3.091,3.091,0,0,1-2.358.776c-.6-.021-1.241-.014-1.808-.007-.68.007-1.382.013-2.094-.018.035,5.616.035,11.33,0,17.476v.038c.491-.011.983-.015,1.472-.015C1820.034-2828.468,1820.622-2828.462,1821.2-2828.457Zm16.556-4.625a3.014,3.014,0,0,1-1.2-2.927l.018-.155c.18-1.068.359-2.151.543-3.24l0-.038c.5-2.987,1.008-6.07,1.586-9.131.092-.479.056-.656-.381-1.075-2.707-2.581-5.6-5.37-8.442-8.247-.183-.187-1.777-1.861-1.315-3.42s2.819-1.978,3.084-2.024c1.844-.3,3.715-.574,5.524-.835,2.065-.3,4.181-.6,6.25-.955a1.62,1.62,0,0,0,.821-.649c.983-1.886,1.943-3.836,2.873-5.718l.028-.056c.811-1.647,1.65-3.349,2.5-5.013.324-.627,1.474-2.225,2.848-2.059a3.972,3.972,0,0,1,2.7,2.108c.9,1.72,1.763,3.484,2.6,5.187l.018.035c.906,1.833,1.837,3.727,2.8,5.563a1.6,1.6,0,0,0,.836.621c2.058.342,4.152.642,6.179.93,1.886.268,3.835.547,5.76.861a4.012,4.012,0,0,1,2.841,1.9c.688,1.457-1.065,3.251-1.139,3.325-2.813,2.845-5.728,5.7-8.661,8.489a.956.956,0,0,0-.328,1.118c.867,4.653,1.523,8.447,2.065,11.937a3.608,3.608,0,0,1-1.026,3.258c-1.058.773-2.686.292-3.405-.067-3.845-1.939-7.353-3.786-10.722-5.645a1.045,1.045,0,0,0-1.276.046c-3.236,1.753-6.729,3.593-11,5.789a3.7,3.7,0,0,1-1.681.459A2.379,2.379,0,0,1,1837.756-2833.082Z" transform="translate(735 1802)" stroke="rgba(0,0,0,0)" stroke-miterlimit="10" stroke-width="1"/>
  </g>
</svg>
