<svg id="icon_lock" xmlns="http://www.w3.org/2000/svg" width="100" height="100" viewBox="0 0 100 100">
  <rect id="shape" width="100" height="100" fill="none"/>
  <path id="lock" d="M68.667,32.833H64.19V23.881a22.381,22.381,0,1,0-44.762,0v8.952H14.952A8.979,8.979,0,0,0,6,41.786V86.548A8.979,8.979,0,0,0,14.952,95.5H68.667a8.979,8.979,0,0,0,8.952-8.952V41.786A8.979,8.979,0,0,0,68.667,32.833ZM41.81,73.119a8.952,8.952,0,1,1,8.952-8.952A8.979,8.979,0,0,1,41.81,73.119ZM55.686,32.833H27.933V23.881a13.876,13.876,0,1,1,27.752,0Z" transform="translate(7.715 1.5)"/>
</svg>
