<svg id="icon_target" xmlns="http://www.w3.org/2000/svg" width="100" height="100" viewBox="0 0 100 100">
  <rect id="shape" width="100" height="100" fill="none"/>
  <g id="icon" transform="translate(1.749 1.736)">
    <path id="shape-2" data-name="shape" d="M44.443,91.052C22.175,87.319,9.283,74.351,5.468,52.2c-4.557-.962-5.6-1.749-5.456-4.171.133-2.29,1.591-3.262,5.434-3.548C9.146,22.352,22.027,9.287,44.289,5.51,45.426.84,46.147-.114,48.481.011c2.314.123,3.079,1.279,3.627,5.483q33.31,5.573,38.916,38.892c4.357.68,5.558,1.557,5.474,4.01-.08,2.359-1.467,3.309-5.468,3.7Q85.476,85.351,52.152,91.055c-.837,4.457-1.715,5.61-4.2,5.458-2.312-.141-3.178-1.465-3.508-5.462m7.7-7.988C68.04,82.478,82.671,66.863,83,52.149c-3.649-.557-4.938-1.514-5.017-3.722-.081-2.279,1.184-3.295,5.091-4.089C82.2,28.049,66.7,13.844,52.106,13.54c-.49,3.536-1.515,4.9-3.745,4.991-2.188.087-3.156-1.131-4.071-5.125-14.063-.4-33.2,18.947-30.714,31.049,3.26.327,4.7,1.306,4.928,3.345.255,2.306-.9,3.311-5.122,4.473,1.132,16.239,16.06,30.149,30.957,30.79.688-3.772,1.66-5.023,3.931-5.058,2.206-.035,3.262,1.344,3.876,5.059" transform="translate(0)"/>
    <path id="shape-3" data-name="shape" d="M87.707,64.586c12.637.828,22.247,11.233,21.434,23.211-.858,12.64-11.29,22.231-23.257,21.379-12.578-.9-22.07-11.173-21.336-23.1C65.326,73.45,75.724,63.8,87.707,64.586" transform="translate(-38.597 -38.616)"/>
  </g>
</svg>
