<svg id="icon_order_return" xmlns="http://www.w3.org/2000/svg" width="100" height="100" viewBox="0 0 100 100">
  <rect id="shape" width="100" height="100" fill="none"/>
  <g id="icon_truck_orders" transform="translate(1 0.976)">
    <rect id="shape-2" data-name="shape" width="97.824" height="97.824" transform="translate(0.088 0.112)" fill="none"/>
    <path id="Path_24469" data-name="Path 24469" d="M77.268,43.029V66.175L47.009,75.618V10.266l8.255,2.54A26.8,26.8,0,0,1,60.157,5.18L44.038.188c0-.107-.1-.107-.2-.107h-.207A3.66,3.66,0,0,0,42.1.08h-.2c0,.107-.1.107-.2.107L33.029,2.835,24.445,5.488V27.961l-9.58,1.905V8.454L6.506,11.1l-3.465,1.06A4.3,4.3,0,0,0,0,16.4V69.38a4.306,4.306,0,0,0,3.06,4.236L41.7,85.692a4.973,4.973,0,0,0,1.222.21,4.973,4.973,0,0,0,1.222-.21L82.688,73.615a4.5,4.5,0,0,0,3.06-4.236V41.436a23.928,23.928,0,0,1-8.358,1.588Z" transform="translate(0 6.162)" fill="#010101"/>
    <path id="Path_24470" data-name="Path 24470" d="M31.663.4h-.076a18.818,18.818,0,1,0,.076,0m9.125,21.158H29.229l4.39,4.293a2.251,2.251,0,0,1-.038,3.164,2.3,2.3,0,0,1-3.22,0l-8.3-8.136a2.242,2.242,0,0,1,0-3.2L30.37,9.552a2.3,2.3,0,0,1,3.215,0,2.27,2.27,0,0,1,0,3.216l-4.347,4.255H40.788a2.265,2.265,0,0,1,0,4.53" transform="translate(47.557 5.765)" fill="#010101"/>
  </g>
</svg>
