<svg xmlns="http://www.w3.org/2000/svg" width="24.031" height="25.556" viewBox="0 0 24.031 25.556">
  <g id="pizza" transform="translate(0 0)">
    <path id="Path_20129" data-name="Path 20129" d="M18.739,4.69c.358.017.548.187.547.5a.467.467,0,0,1-.436.5.457.457,0,0,1-.074,0,.5.5,0,0,1-.037-.991" fill="#484848"/>
    <path id="Path_20130" data-name="Path 20130" d="M22.478,9.521a15.425,15.425,0,0,0-1.75-2.885c-.009-.014-.018-.027-.028-.04a.5.5,0,1,0-.788.616c.059.1.132.188.2.282a15.335,15.335,0,0,1,2.867,7.781c.073.842.067.844-.757,1.1a5.258,5.258,0,0,0-.756.237c-.363.182-.423-.018-.457-.3a15.445,15.445,0,0,0-.412-2.044,14.428,14.428,0,0,0-4.971-8.006A16.546,16.546,0,0,0,7.668,3.018c-.385-.059-.538-.14-.353-.545a3.853,3.853,0,0,0,.3-.943c.079-.474.338-.532.763-.5a15.728,15.728,0,0,1,8.215,2.95c.294.212.6.371.864.012s.038-.609-.262-.821A16.637,16.637,0,0,0,7.725.008a.785.785,0,0,0-.889.649Q3.5,11.022.159,21.383A1.746,1.746,0,0,0,2.468,23.7c2.325-.76,4.657-1.482,7.057-2.239l0,0c0,.689-.011,1.32,0,1.951v.064a2.118,2.118,0,0,0,2.151,2.083l.051,0a2.085,2.085,0,0,0,1.991-2.175c0-.964-.008-1.928,0-2.892,0-.147-.087-.341.154-.415.8-.248,1.6-.5,2.45-.769,0,.742-.007,1.421,0,2.1a1.733,1.733,0,0,0,0,.279,1.787,1.787,0,1,0,3.561-.3c.006-.947.012-1.9,0-2.842l0-.025a.41.41,0,0,1,.36-.455c1.047-.309,2.077-.674,3.126-.974l.022,0a.791.791,0,0,0,.631-.925,16.3,16.3,0,0,0-1.539-6.631m-4.579.8a18.732,18.732,0,0,1,.9,1.763c.262.609.187.719-.477.713h0a1.4,1.4,0,0,1-1.336-.99,1.433,1.433,0,0,1,.464-1.559c.19-.151.305-.186.45.072M2.981,15.911c.355-1.076.7-2.156,1.05-3.242h0a1.818,1.818,0,0,1,.876,2.008,1.922,1.922,0,0,1-1.7,1.442c-.146.008-.322.071-.23-.208m.052,6.551A1.728,1.728,0,0,1,2.8,22.5h0A1.419,1.419,0,0,1,3.81,21.191a1.34,1.34,0,0,1,1.485.551c-.757.242-1.509.482-2.262.72m6.475-2.2A1.87,1.87,0,0,1,7.675,18.37a1.842,1.842,0,0,1,1.887-1.8H9.6a1.862,1.862,0,0,1,1.816,1.856h0a1.9,1.9,0,0,1-1.9,1.833m10.356-3.139c-.145.029-.279.113-.424.138-.454.079-.569.361-.562.787.019,1.114.011,2.228,0,3.342,0,.554-.269.875-.719.9-.5.033-.824-.3-.831-.891-.01-.864,0-1.729,0-2.594,0-.622-.253-.8-.848-.619-1.073.336-2.14.691-3.216,1.018a.677.677,0,0,0-.556.753c.02,1.13.01,2.261.006,3.392a1.106,1.106,0,0,1-1,1.2l-.053,0a1.119,1.119,0,0,1-1.134-1.1.842.842,0,0,1,0-.087c-.013-.648.02-1.3-.013-1.945-.015-.3.148-.384.361-.5a2.858,2.858,0,1,0-3.1-.26c.063.052.132.1.265.2l0,0c-.538.177-1.01.323-1.474.489-.274.1-.339-.117-.458-.263a2.429,2.429,0,0,0-4.143.509,2.223,2.223,0,0,0-.2.967c.013.344-.146.312-.356.2a.666.666,0,0,1-.352-.843c.482-1.53.991-3.052,1.469-4.583.084-.27.242-.2.42-.2A2.835,2.835,0,0,0,5.607,15.61,2.772,2.772,0,0,0,5.441,12.6a2.22,2.22,0,0,0-.782-.756c-.268-.143-.268-.3-.184-.556.763-2.343,1.512-4.69,2.27-7.034.056-.173.063-.378.377-.328a16.669,16.669,0,0,1,7.659,2.956,12.775,12.775,0,0,1,2.178,2.107c.146.177.164.257-.041.42a2.423,2.423,0,0,0,2.146,4.28c.27-.076.334,0,.4.226a27.44,27.44,0,0,1,.622,2.863c.034.2-.012.309-.222.351" fill="#484848"/>
    <path id="Path_20131" data-name="Path 20131" d="M9.7,5.474v0a2.98,2.98,0,1,0,3.011,3,3.011,3.011,0,0,0-3.011-3m-.063,4.973A2.025,2.025,0,0,1,7.66,8.462,2,2,0,0,1,9.679,6.481h.032a2,2,0,0,1,2,1.99,2.026,2.026,0,0,1-2.075,1.976" fill="#484848"/>
    <path id="Path_20132" data-name="Path 20132" d="M15.174,13.528a2.6,2.6,0,0,0-2.435-1.575h.005a2.593,2.593,0,0,0-1.729.644.532.532,0,0,0-.053.887c.93.963,1.861,1.931,2.8,2.891.364.373.616.367.953-.027a2.565,2.565,0,0,0,.459-2.821m-.946,1.7-2.223-2.012a1.49,1.49,0,0,1,1.817.129,1.532,1.532,0,0,1,.406,1.883" fill="#484848"/>
  </g>
</svg>
