<svg xmlns="http://www.w3.org/2000/svg" width="24.006" height="14.99" viewBox="0 0 24.006 14.99">
  <path id="vegan" d="M23.99,5.17c0-.015,0-.03,0-.045a.723.723,0,0,0-.769-.676,12.882,12.882,0,0,0-2.662.111c-2.622.416-4.812,1.493-6.087,4.1-.084-.277-.143-.468-.2-.66a10.025,10.025,0,0,0-3.513-5.444C7.836.392,4.472-.113.957.02.253.046.047.3.022,1.033a18.128,18.128,0,0,0,.84,6.422,9.744,9.744,0,0,0,5.033,5.982,15.628,15.628,0,0,0,6.455,1.5,22.807,22.807,0,0,0,5.181-.237,7.421,7.421,0,0,0,4.453-2.361C23.739,10.264,24.09,7.77,23.99,5.17m-10.67,7.1,0,.005L8.245,7.2A2.791,2.791,0,0,0,7.9,6.879a.671.671,0,0,0-.933.08.681.681,0,0,0-.1.9,2.012,2.012,0,0,0,.308.35q2.434,2.442,4.872,4.88a1.472,1.472,0,0,1,.307.347c-3.672-.25-7.1-.976-9.2-4.445A12.34,12.34,0,0,1,1.605,3.978a19.39,19.39,0,0,1-.113-2.247c0-.183.023-.282.247-.28A14.056,14.056,0,0,1,9.184,3.243a8.611,8.611,0,0,1,3.753,5.444,14.2,14.2,0,0,1,.5,3.186c.008.146.144.331-.117.4m7.806-1.2a6.09,6.09,0,0,1-4.035,2.215,2.432,2.432,0,0,1-.889.1c-.039-.153.111-.2.184-.271q1.417-1.435,2.846-2.858a.718.718,0,0,0,.168-.932.711.711,0,0,0-.8-.348.923.923,0,0,0-.5.331L15.416,12c-.109.109-.223.212-.4.375V12.37a8.583,8.583,0,0,1,1.13-3.72,5.767,5.767,0,0,1,3.859-2.486,12.721,12.721,0,0,1,2.226-.276c.168-.009.3-.013.3.229a8.408,8.408,0,0,1-1.411,4.957" transform="translate(0 0)" fill="#484848"/>
</svg>
