<svg xmlns="http://www.w3.org/2000/svg" width="20.95" height="23.675" viewBox="0 0 20.95 23.675">
  <g id="icon" transform="translate(0 0)">
    <path id="Caminho_2477" data-name="Caminho 2477" d="M622.372,406.458q0-2.835,0-5.67a3.659,3.659,0,0,0-1.96-3.456,3.727,3.727,0,0,0-5.4,2.517c-.058.271-.034.558-.073.834a1.114,1.114,0,0,1-1.2,1.014,1.069,1.069,0,0,1-1.034-1.167,6.061,6.061,0,0,1,.076-1.035,5.96,5.96,0,0,1,11.8.594c.024.334.037.67.038,1,0,3.8.006,7.068-.008,10.87a1.709,1.709,0,0,1-.212.819,1.011,1.011,0,0,1-1.2.432,1.03,1.03,0,0,1-.8-.888,2.362,2.362,0,0,1-.033-.467C622.371,409.88,622.372,408.438,622.372,406.458Z" transform="translate(-608.193 -390.111)" fill="#fff"/>
    <path id="Caminho_2478" data-name="Caminho 2478" d="M545.416,342.344c0-1.542-.055-3.087.01-4.627a10.47,10.47,0,0,1,13.666-9.668,1.172,1.172,0,0,1,.9,1.114,1.109,1.109,0,0,1-.834,1.088,1.063,1.063,0,0,1-.584,0,8.6,8.6,0,0,0-2.972-.42,8.238,8.238,0,0,0-7.937,8.405c.019,3.006.005,6.013,0,9.019a1.2,1.2,0,0,1-.717,1.28,1.114,1.114,0,0,1-1.539-1.093c-.01-1.542,0-3.085,0-4.627Q545.416,342.579,545.416,342.344Z" transform="translate(-545.394 -327.525)" fill="#fff"/>
    <path id="Caminho_2479" data-name="Caminho 2479" d="M785.96,380.732c0-1.285-.021-2.57,0-3.855a8.5,8.5,0,0,0-2.406-6.332,1.108,1.108,0,0,1,.317-1.8,1.12,1.12,0,0,1,1.294.247,10.3,10.3,0,0,1,2.717,4.81,12.878,12.878,0,0,1,.34,3.188q-.005,4.274,0,8.548a1.162,1.162,0,0,1-.9,1.244,1.1,1.1,0,0,1-1.327-.825,2.459,2.459,0,0,1-.04-.5Q785.957,383.1,785.96,380.732Z" transform="translate(-767.277 -365.879)" fill="#fff"/>
    <path id="Caminho_2480" data-name="Caminho 2480" d="M619.5,473.091a1.051,1.051,0,0,0-.753-1,1.114,1.114,0,0,0-1.511,1.061c-.005,2.012.007,8.909.02,8.983v.1a1.692,1.692,0,0,1-.678,1.5,1.133,1.133,0,0,1-1.057.049,1.355,1.355,0,0,1-.754-.974c-.007-.035-.11-.819-.121-.931-.1-.994.013-3.967-.006-4.979a1.142,1.142,0,0,0-.19-.622,1.228,1.228,0,0,0-1.255-.365.923.923,0,0,0-.8.816c-.011.916-.028,4.116,0,5.3a6.541,6.541,0,0,0,.154.974,3.6,3.6,0,0,0,2.961,2.974,3.34,3.34,0,0,0,2.617-.716,3.7,3.7,0,0,0,1.359-2.628c.013-.188.02-.376.02-.561C619.509,482.069,619.513,473.568,619.5,473.091Z" transform="translate(-607.894 -462.337)" fill="#fff"/>
  </g>
</svg>
