<svg xmlns="http://www.w3.org/2000/svg" width="100" height="100" viewBox="0 0 100 100"><defs><style>.a{fill:none;}.b{fill:#d4d4d4;}.c{fill:#232931;}.d{fill:#f6a400;}.e{fill:#4ecca3;}.f{fill:#484848;}.g{fill:#fff;}.h{fill:#282828;}</style></defs><rect class="a" width="100" height="100"/><g transform="translate(-1517.036 -842.84)"><g transform="translate(1517.036 917.727)"><path class="b" d="M50,0c27.614,0,50,4.369,50,9.758s-22.386,9.758-50,9.758S0,15.147,0,9.758,22.386,0,50,0Z" transform="translate(0 3.71)"/><path class="c" d="M5.774,0A5.774,5.774,0,1,1,0,5.774,5.774,5.774,0,0,1,5.774,0Z" transform="translate(13.842 0)"/><path class="d" d="M0,0H15.189V15.189H0Z" transform="translate(75.769 0.061)"/><path class="e" d="M5.774,0A5.774,5.774,0,1,1,0,5.774,5.774,5.774,0,0,1,5.774,0Z" transform="translate(70.082 7.5)"/></g><g transform="translate(1538.031 845.568)"><path class="f" d="M26.748,0A26.755,26.755,0,1,1,0,26.755,26.752,26.752,0,0,1,26.748,0Z" transform="translate(0 20.491)"/><path class="f" d="M0,0H8.126V14.563H0Z" transform="translate(14.559 68.243)"/><path class="f" d="M0,0H8.126V14.563H0Z" transform="translate(30.811 68.243)"/><path class="f" d="M6.772,0c3.74,0,6.772,1.137,6.772,2.54S10.512,5.08,6.772,5.08,0,3.943,0,2.54,3.032,0,6.772,0Z" transform="translate(14.559 80.435)"/><path class="f" d="M6.772,0c3.74,0,6.772,1.137,6.772,2.54S10.512,5.08,6.772,5.08,0,3.943,0,2.54,3.032,0,6.772,0Z" transform="translate(30.811 80.096)"/><path class="g" d="M9.142,0A9.144,9.144,0,1,1,0,9.144,9.143,9.143,0,0,1,9.142,0Z" transform="translate(18.284 31.328)"/><path class="h" d="M3.047,0A3.048,3.048,0,1,1,0,3.048,3.048,3.048,0,0,1,3.047,0Z" transform="translate(24.378 37.424)"/><path class="e" d="M201.563,489.969c-2.16-9.675,4.744-19.451,15.421-21.836s21.082,3.526,23.242,13.2-4.916,13.243-15.592,15.628S203.722,499.644,201.563,489.969Z" transform="translate(-200.761 -467.605)"/></g></g></svg>