<svg xmlns="http://www.w3.org/2000/svg" width="24.023" height="18.757" viewBox="0 0 24.023 18.757">
  <g id="burger" transform="translate(-34.979 -384.985)">
    <path id="Path_20125" data-name="Path 20125" d="M23.451,13.976c.158-.168.082-.39-.134-.508a.348.348,0,0,0-.1-.042.325.325,0,0,0-.391.242.835.835,0,0,1-.9.506c-2.03-.005-4.061,0-6.091,0H14.193a8.2,8.2,0,0,1,4.174-2.349,27.279,27.279,0,0,1,3.272-.089c.525-.024,1,.01,1.241.59a.31.31,0,0,0,.026.047.3.3,0,0,0,.416.082l.029-.014a.337.337,0,0,0,.13-.459,1.3,1.3,0,0,0-.622-.729.4.4,0,0,1-.249-.476,2.1,2.1,0,0,0,0-.514.4.4,0,0,1,.321-.5,1.645,1.645,0,0,0,1.061-1.868,7.152,7.152,0,0,0-.321-1.265,9.07,9.07,0,0,0-4.527-4.9A15,15,0,0,0,10.551.085,13.908,13.908,0,0,0,3.938,2.3,8.272,8.272,0,0,0,.064,7.791a1.531,1.531,0,0,0,.6,1.7.942.942,0,0,1,.47,1.057,1.781,1.781,0,0,0,.017.467.335.335,0,0,1-.113.321A2.564,2.564,0,0,0,.85,14.417c.075.1.152.15.052.306A2.946,2.946,0,0,0,1.186,18a2.135,2.135,0,0,0,1.648.753h8.153c.263,0,.54.007.552-.342s-.272-.369-.531-.369h-1.5c-2.171,0-4.342,0-6.513,0a1.521,1.521,0,0,1-1.64-1.235c-.06-.209-.1-.425-.135-.639-.151-.818.208-1.266,1.03-1.266,2.609-.007,5.217,0,7.825-.007a.687.687,0,0,1,.562.25,1.458,1.458,0,0,0,2.487.017.775.775,0,0,1,.647-.267c1.457.011,2.905.005,4.357.005,1.248,0,2.5-.009,3.748,0a.917.917,0,0,1,.958,1.173c-.034.184-.073.367-.12.547,0,.044-.009.088-.016.132a1.567,1.567,0,0,1-1.8,1.288H13.212a2.783,2.783,0,0,0-.465.033h0a.3.3,0,0,0-.259.336.331.331,0,0,0,.278.329,1.431,1.431,0,0,0,.327.011q4.006,0,8.012,0a2.7,2.7,0,0,0,.706-.143,2.649,2.649,0,0,0,1.625-3.374c-.209-.475-.394-.823.016-1.259m-2.03-2.932c-.779-.03-1.56-.008-2.34-.008v0c-.78,0-1.56-.012-2.34.006-.282.007-.371-.057-.362-.358.022-.793,0-.794.809-.794,1.4,0,2.808.018,4.212-.01.475-.009.533.2.531.6,0,.373-.062.584-.51.567M17.587,1.849c.109-.12.231.021.332.062.739.3.738.314.117,1.033v0c-.16-.236-.329-.457-.465-.7a.351.351,0,0,1,.016-.4m-3.319-.188.007.008a.478.478,0,0,1,.094.667c-.132.2-.276.4-.437.631h0c-.164-.236-.314-.431-.44-.641A.483.483,0,0,1,13.6,1.66a.47.47,0,0,1,.665,0m-4.811.017a.482.482,0,0,1,.68-.028c.009.009.019.018.028.028.3.269.216.547-.355,1.252v0c-.561-.681-.648-.994-.353-1.256M6.192,1.9c.045.483-.3.722-.5,1.042-.561-.693-.635-.54.5-1.042M.808,7.647a7.882,7.882,0,0,1,3.6-4.814c.173-.117.264-.083.365.086a4.452,4.452,0,0,0,.4.573.585.585,0,0,0,.966.026c.384-.51.913-.981.726-1.736-.038-.154.068-.2.168-.228a11.677,11.677,0,0,1,2-.523l.005-.007,0,.007h0a1.756,1.756,0,0,0,.442,2.607.57.57,0,0,0,.8-.117l0,0a5.426,5.426,0,0,0,.651-.965c.3-.6.066-1.165-.708-1.723A18.323,18.323,0,0,1,13.642.792c-.2.125-.339.2-.467.3a1.2,1.2,0,0,0-.42,1.293,3.077,3.077,0,0,0,.783,1.2.541.541,0,0,0,.764.041.614.614,0,0,0,.069-.075,3.752,3.752,0,0,0,.706-1.039c.225-.515.064-.984-.51-1.57a14.138,14.138,0,0,1,2.158.513c.173.052.187.159.15.321-.193.833.386,1.339.858,1.853.238.259.59.138.821-.133a3.536,3.536,0,0,0,.4-.572c.155-.28.289-.348.595-.142a7.963,7.963,0,0,1,3.66,4.827c.258,1.107-.127,1.59-1.27,1.59H2.036C.965,9.2.567,8.7.808,7.647m14.873,2.807c0,.349,0,.6-.479.587-1.124-.028-2.249-.009-3.373-.009h0c-1.093,0-2.187-.02-3.279.009-.466.012-.491-.217-.483-.575.007-.339-.011-.593.471-.588q3.326.031,6.653,0c.457,0,.5.211.492.575m-13.4.585c-.486.017-.458-.273-.466-.6s.039-.56.47-.555c1.573.018,3.147.015,4.72,0,.3,0,.359.092.354.372-.012.78,0,.78-.779.78H4.661v0c-.794,0-1.59-.02-2.383.007m7.3,3.136H2.148a1.255,1.255,0,0,1-.419-.019c-.822-.3-.539-1.022-.563-1.606a.76.76,0,0,1,.7-.814h.029a9.789,9.789,0,0,1,7.68,2.44h0Zm3.4.111c-.182.193-.347.4-.534.589a.7.7,0,0,1-.985.1.765.765,0,0,1-.091-.089,12.644,12.644,0,0,0-4.341-3.137H16.3a12.537,12.537,0,0,0-3.322,2.534" transform="translate(34.979 384.985)" fill="#484848"/>
    <path id="Path_20126" data-name="Path 20126" d="M12.182,3.929a.546.546,0,0,0-.79.129,6.443,6.443,0,0,0-.627.924,1.153,1.153,0,0,0,.22,1.375,1.209,1.209,0,0,0,1.372.284,1.3,1.3,0,0,0,.75-1.208v0a2.563,2.563,0,0,0-.925-1.5m-.047,2.018a.515.515,0,0,1-.58-.035.477.477,0,0,1-.132-.661h0c.121-.213.274-.41.447-.666h0c.166.246.31.448.442.656a.516.516,0,0,1-.178.707" transform="translate(34.979 384.985)" fill="#484848"/>
    <path id="Path_20127" data-name="Path 20127" d="M16.266,3.882a.848.848,0,0,0-.217-.046v.005a.547.547,0,0,0-.511.19,7.019,7.019,0,0,0-.672,1,1.24,1.24,0,0,0-.069.222,1.223,1.223,0,1,0,2.395.5,2.442,2.442,0,0,0-.926-1.869m-.024,2.076a.515.515,0,0,1-.7-.687c.142-.235.3-.463.459-.682h0c.164.24.323.447.453.672a.515.515,0,0,1-.208.7" transform="translate(34.979 384.985)" fill="#484848"/>
    <path id="Path_20128" data-name="Path 20128" d="M8.977,5.489A3,3,0,0,0,8.06,3.916a.578.578,0,0,0-.765.113,6.175,6.175,0,0,0-.679,1,1.141,1.141,0,0,0,.247,1.332,1.216,1.216,0,0,0,1.373.278,1.267,1.267,0,0,0,.742-1.15Zm-.969.457a.515.515,0,0,1-.577-.03.478.478,0,0,1-.137-.661c.126-.226.291-.43.453-.665.16.237.3.439.437.648a.516.516,0,0,1-.176.708" transform="translate(34.979 384.985)" fill="#484848"/>
  </g>
</svg>
