<svg id="icon_shopping-cart" xmlns="http://www.w3.org/2000/svg" width="100" height="100" viewBox="0 0 100 100">
  <rect id="shape" width="100" height="100" fill="none"/>
  <path id="cart" d="M30.471,80.591A9.824,9.824,0,1,0,40.3,90.414,9.811,9.811,0,0,0,30.471,80.591ZM1,6.912a4.926,4.926,0,0,0,4.912,4.912h4.912L28.507,49.105,21.876,61.09a9.842,9.842,0,0,0,8.6,14.588H84.5a4.912,4.912,0,0,0,0-9.824H30.471l5.4-9.824H72.468a9.777,9.777,0,0,0,8.6-5.059L98.649,19.093a4.893,4.893,0,0,0-4.273-7.27h-72.7L18.388,4.8A4.876,4.876,0,0,0,13.967,2H5.912A4.926,4.926,0,0,0,1,6.912ZM79.591,80.591a9.824,9.824,0,1,0,9.824,9.824A9.811,9.811,0,0,0,79.591,80.591Z" transform="translate(-1 -1)"/>
</svg>
