<svg xmlns="http://www.w3.org/2000/svg" width="89.335" height="20.056" viewBox="0 0 89.335 20.056"><defs><style>.a{fill:#1a758c;}.b{fill:#4a4a4a;}.c{fill:#787878;}</style></defs><g transform="translate(0 0)"><path class="a" d="M620.895,404.646q0-2.4,0-4.8a3.1,3.1,0,0,0-1.66-2.928,3.157,3.157,0,0,0-4.57,2.132c-.049.229-.029.473-.061.707a.944.944,0,0,1-1.017.859.906.906,0,0,1-.876-.989,5.125,5.125,0,0,1,.064-.877,5.049,5.049,0,0,1,10,.5c.021.283.032.567.032.851,0,3.221,0,5.987-.006,9.208a1.448,1.448,0,0,1-.18.694.857.857,0,0,1-1.017.366.872.872,0,0,1-.678-.753,2,2,0,0,1-.028-.4C620.894,407.545,620.895,406.323,620.895,404.646Z" transform="translate(-608.883 -390.797)"/><path class="a" d="M545.413,340.079c0-1.307-.047-2.615.009-3.919A8.87,8.87,0,0,1,557,327.97a.993.993,0,0,1,.766.944.939.939,0,0,1-.706.922.9.9,0,0,1-.495,0,7.288,7.288,0,0,0-2.518-.356,6.979,6.979,0,0,0-6.723,7.121c.016,2.547,0,5.094,0,7.641a1.013,1.013,0,0,1-.607,1.084.944.944,0,0,1-1.3-.926c-.008-1.306,0-2.613,0-3.92Q545.413,340.278,545.413,340.079Z" transform="translate(-545.394 -327.524)"/><path class="a" d="M785.542,378.884c0-1.089-.018-2.178,0-3.266a7.2,7.2,0,0,0-2.038-5.364.939.939,0,0,1,.269-1.524.949.949,0,0,1,1.1.209,8.73,8.73,0,0,1,2.3,4.075,10.909,10.909,0,0,1,.288,2.7q0,3.621,0,7.241a.984.984,0,0,1-.759,1.054.936.936,0,0,1-1.124-.7,2.084,2.084,0,0,1-.034-.423Q785.54,380.886,785.542,378.884Z" transform="translate(-769.715 -366.301)"/><path class="a" d="M618.415,472.928a.89.89,0,0,0-.638-.851.943.943,0,0,0-1.28.9c0,1.7.006,7.547.017,7.61v.083a1.433,1.433,0,0,1-.574,1.272.96.96,0,0,1-.9.041,1.148,1.148,0,0,1-.639-.825c-.006-.03-.093-.694-.1-.789-.082-.842.011-3.36-.005-4.218a.968.968,0,0,0-.161-.527,1.04,1.04,0,0,0-1.063-.309.782.782,0,0,0-.675.692c-.009.776-.023,3.487,0,4.492a5.553,5.553,0,0,0,.13.825,3.054,3.054,0,0,0,2.508,2.52,2.829,2.829,0,0,0,2.217-.607,3.132,3.132,0,0,0,1.152-2.226c.011-.159.017-.319.017-.475C618.42,480.533,618.423,473.332,618.415,472.928Z" transform="translate(-608.581 -463.818)"/><g transform="translate(26.259 1.607)"><path class="b" d="M993.979,436.876a4.1,4.1,0,0,0-2.67,1,3.447,3.447,0,0,0-1.2,2.619v6.778h2.108v-6.778a1.636,1.636,0,0,1,1.7-1.687,1.619,1.619,0,0,1,1.7,1.687v6.778h2.108v-6.778a3.527,3.527,0,0,0-1.044-2.615A3.79,3.79,0,0,0,993.979,436.876Z" transform="translate(-990.109 -433.329)"/><path class="b" d="M1186.28,439.861l.017,10.229h2.108l-.017-10.229Z" transform="translate(-1175.524 -436.15)"/><path class="b" d="M1184.267,372.378a1.27,1.27,0,1,0,1.267,1.271A1.27,1.27,0,0,0,1184.267,372.378Z" transform="translate(-1172.424 -372.378)"/><path class="b" d="M1286.436,446.639a1.637,1.637,0,0,1-1.7,1.687,1.655,1.655,0,0,1-1.7-1.687v-6.778h-2.108v6.778a3.536,3.536,0,0,0,3.772,3.615,3.746,3.746,0,0,0,3.837-3.615v-6.778h-2.108Z" transform="translate(-1264.989 -436.15)"/><path class="b" d="M1471.657,436.876a3.812,3.812,0,0,0-3.8,3.717v10.384h2.108v-3.729a3.386,3.386,0,0,0,1.795.478,3.716,3.716,0,0,0,3.706-3.717v-3.415A3.6,3.6,0,0,0,1471.657,436.876Zm-1.7,3.717a1.66,1.66,0,0,1,1.7-1.734,1.642,1.642,0,0,1,1.7,1.734v3.415a1.66,1.66,0,0,1-1.7,1.734,1.678,1.678,0,0,1-1.7-1.734Z" transform="translate(-1441.657 -433.622)"/><g transform="translate(40.044 3.326)"><path class="c" d="M1729.765,435.575a3.964,3.964,0,0,0-2.715,1.09,3.917,3.917,0,0,0-6.623,2.628v6.968h2.108v-6.968a1.66,1.66,0,0,1,1.7-1.735,1.642,1.642,0,0,1,1.7,1.735v6.968h2.108v-6.968a1.642,1.642,0,0,1,1.7-1.735,1.659,1.659,0,0,1,1.7,1.735v6.968h2.108v-6.968A3.583,3.583,0,0,0,1729.765,435.575Z" transform="translate(-1720.426 -435.575)"/><path class="c" d="M2009.312,441.991v-2.7a3.6,3.6,0,0,0-3.8-3.717,3.812,3.812,0,0,0-3.8,3.717v3.415a3.6,3.6,0,0,0,3.8,3.717,3.812,3.812,0,0,0,3.8-3.717v-.137H2007.2v.137a1.659,1.659,0,0,1-1.7,1.734,1.678,1.678,0,0,1-1.7-1.734v-.716Zm-3.8-4.434a1.641,1.641,0,0,1,1.7,1.735v.716h-3.36v-.716A1.644,1.644,0,0,1,2005.507,437.558Z" transform="translate(-1986.28 -435.575)"/></g><ellipse class="c" cx="1.206" cy="1.21" rx="1.206" ry="1.21" transform="translate(35.634 11.414)"/></g></g></svg>