<svg xmlns="http://www.w3.org/2000/svg" width="89.6" height="20" viewBox="0 0 89.6 20"><defs><style>.a{fill:#fff;}</style></defs><g transform="translate(-31.298 -210.739)"><g transform="translate(31.298 210.739)"><path class="a" d="M491,257.216a.334.334,0,0,1-.333.334h-7.51v0q-1.557,0-3.114,0a6.763,6.763,0,0,1-1.515-.153A3.709,3.709,0,0,1,475.5,253.8c-.1-2.6.024-5.2,0-7.8-.008-1.022,0-2.045,0-3.1a.334.334,0,0,1,.333-.334h2.883a.333.333,0,0,1,.333.334v.444q0,4.421,0,8.842c0,1.631.531,2.147,2.175,2.148h6.036A.333.333,0,0,0,487.6,254V242.915a.334.334,0,0,1,.333-.334h2.734a.333.333,0,0,1,.333.334Z" transform="translate(-424.395 -238.905)"/><path class="a" d="M261.319,257.8a.333.333,0,0,1-.333-.334v-2.153h0q0-3.41-.006-6.82a7.27,7.27,0,0,0-.11-1.174,1.409,1.409,0,0,0-1.292-1.255,4.384,4.384,0,0,0-.622-.056H252.6a.333.333,0,0,0-.333.333c0,3.687.007,7.413.007,11.127a.334.334,0,0,1-.333.334h-2.807a.334.334,0,0,1-.333-.334V243.181a.333.333,0,0,1,.333-.334h11.376c2.771.282,3.943,1.77,3.961,4.931.015,2.713.008,5.426,0,8.139v1.542a.334.334,0,0,1-.333.338Z" transform="translate(-223.791 -239.152)"/><path class="a" d="M643.855,254.921V254.2c.048-.315.189-.407.606-.4q1.847.017,3.694.015v0h.628c1.461,0,2.923.02,4.382-.035a2.366,2.366,0,0,0,2.589-2.286c.171-1.724.133-3.472.142-5.21.013-2.492-.827-3.49-2.834-3.71h-12.38a.333.333,0,0,0-.333.334v11.287c0,.881,0,1.788,0,2.681v.346a.334.334,0,0,0,.333.334h2.841a.333.333,0,0,0,.333-.334l0-2.295m4.3-3.942-4.308,0m0-.334v-4.862a.334.334,0,0,1,.333-.334h6.656c1.3,0,1.577.281,1.579,1.593,0,.927.017,1.855-.013,2.782-.025.768-.371,1.148-1.1,1.151l-7.117,0A.334.334,0,0,1,643.848,250.64Z" transform="translate(-570.324 -238.905)"/><g transform="translate(85.574 0.063)"><g transform="translate(1.111 0.787)"><path class="a" d="M785.238,220.408v-2.282h.969a1.66,1.66,0,0,1,.53.061.524.524,0,0,1,.265.219.658.658,0,0,1,.1.36.61.61,0,0,1-.151.424.722.722,0,0,1-.451.211,1.062,1.062,0,0,1,.246.191,2.629,2.629,0,0,1,.263.37l.278.445h-.551l-.333-.5a3.233,3.233,0,0,0-.242-.336.353.353,0,0,0-.139-.095.739.739,0,0,0-.232-.026H785.7v.953Zm.46-1.317h.341a1.747,1.747,0,0,0,.413-.028.249.249,0,0,0,.129-.1.3.3,0,0,0,.047-.171.274.274,0,0,0-.062-.186.28.28,0,0,0-.173-.09q-.056-.007-.336-.008H785.7Z" transform="translate(-785.238 -218.126)"/></g><path class="a" d="M779.6,213.3a2.013,2.013,0,1,1-2.013-2.015A2.014,2.014,0,0,1,779.6,213.3Zm-2.013,1.7a1.7,1.7,0,1,0-1.7-1.7,1.7,1.7,0,0,0,1.7,1.7Z" transform="translate(-775.574 -211.288)"/></g><path class="a" d="M418.132,243.03a.334.334,0,0,1,.333.334v14.261a.334.334,0,0,1-.333.334h-2.872a.334.334,0,0,1-.333-.334V243.364a.334.334,0,0,1,.333-.334Z" transform="translate(-370.818 -239.314)"/><g transform="translate(0 0)"><ellipse class="a" cx="2.298" cy="2.3" rx="2.298" ry="2.3" transform="translate(5.733)"/><ellipse class="a" cx="2.298" cy="2.3" rx="2.298" ry="2.3" transform="translate(1.401 13.418)"/><ellipse class="a" cx="2.298" cy="2.3" rx="2.298" ry="2.3" transform="translate(15.524 10.128)"/><g transform="translate(0 0.871)"><path class="a" d="M124.707,222.009l2.755.844a1.556,1.556,0,0,1,1.061,1.139l.765,3.318a3.533,3.533,0,0,1,3.589-.867l-1.195-5.18a1.872,1.872,0,0,0-1.276-1.369l-5.174-1.583a3.538,3.538,0,0,1-.524,3.7Z" transform="translate(-113.967 -218.31)"/><path class="a" d="M92.655,324.225,89.9,326.8a.933.933,0,0,1-.91.21l-3.587-1.1a3.536,3.536,0,0,1-.992,3.557l5.356,1.639a1.263,1.263,0,0,0,1.232-.285l4.166-3.888A3.54,3.54,0,0,1,92.655,324.225Z" transform="translate(-78.3 -312.037)"/><path class="a" d="M36.127,241.913l-.738-3.2a1.88,1.88,0,0,1,.548-1.8l1.962-1.833a3.537,3.537,0,0,1-2.1-3.089L32,235.539a2.209,2.209,0,0,0-.645,2.111l1.173,5.085a3.529,3.529,0,0,1,3.6-.822Z" transform="translate(-31.298 -230.418)"/></g></g></g></g></svg>