<svg xmlns="http://www.w3.org/2000/svg" width="49.328" height="55.2" viewBox="0 0 49.328 55.2">
  <path id="user" d="M6.736,49.961A28.489,28.489,0,0,1,.385,44.6,1.669,1.669,0,0,1,0,43.58,13.5,13.5,0,0,1,10.088,31.245a17.35,17.35,0,0,1,4.011-.467c3.52-.06,7.047-.018,10.57-.018v.028c3.891,0,7.786-.092,11.677.023A13.573,13.573,0,0,1,49.327,43.705a1.3,1.3,0,0,1-.37.855,32.265,32.265,0,0,1-20.7,10.43,35.684,35.684,0,0,1-3.829.209A32.327,32.327,0,0,1,6.736,49.961ZM24.613,27.167A13.823,13.823,0,0,1,10.867,13.579a13.8,13.8,0,0,1,27.588,0A13.852,13.852,0,0,1,24.672,27.167Z" fill="#484848"/>
</svg>
